<?xml version="1.0" encoding="UTF-8" standalone="no"?>
<!-- Created with Inkscape (http://www.inkscape.org/) -->

<svg
   width="1920"
   height="1080"
   viewBox="0 0 507.99999 285.75001"
   version="1.1"
   id="svg8"
   inkscape:version="1.1 (c68e22c387, 2021-05-23)"
   sodipodi:docname="arch-spot.svg"
   inkscape:export-filename="D:\Git\Matcha-wallpapers\Test2a.png"
   inkscape:export-xdpi="96"
   inkscape:export-ydpi="96"
   xmlns:inkscape="http://www.inkscape.org/namespaces/inkscape"
   xmlns:sodipodi="http://sodipodi.sourceforge.net/DTD/sodipodi-0.dtd"
   xmlns="http://www.w3.org/2000/svg"
   xmlns:svg="http://www.w3.org/2000/svg"
   xmlns:rdf="http://www.w3.org/1999/02/22-rdf-syntax-ns#"
   xmlns:cc="http://creativecommons.org/ns#"
   xmlns:dc="http://purl.org/dc/elements/1.1/">
  <defs
     id="defs2">
    <clipPath
       clipPathUnits="userSpaceOnUse"
       id="clipPath4732">
      <rect
         style="fill:#ff2a2a;fill-opacity:1;stroke-width:0.26458332"
         id="rect4734"
         width="508"
         height="285.75"
         x="0"
         y="11.249983" />
    </clipPath>
    <clipPath
       clipPathUnits="userSpaceOnUse"
       id="clipPath855">
      <rect
         style="fill:#ff0000;fill-opacity:1;stroke-width:1.33057594"
         id="rect857"
         width="508"
         height="285.75"
         x="0"
         y="11.249984" />
    </clipPath>
    <clipPath
       id="clipPath833"
       clipPathUnits="userSpaceOnUse">
      <path
         inkscape:connector-curvature="0"
         id="path831"
         d="M 0,500 H 750 V 0 H 0 Z" />
    </clipPath>
    <clipPath
       id="clipPath1105"
       clipPathUnits="userSpaceOnUse">
      <path
         inkscape:connector-curvature="0"
         id="path1103"
         d="M 0,500 H 750 V 0 H 0 Z" />
    </clipPath>
  </defs>
  <sodipodi:namedview
     id="base"
     pagecolor="#fffffe"
     bordercolor="#666666"
     borderopacity="1.0"
     inkscape:pageopacity="0.0"
     inkscape:pageshadow="2"
     inkscape:zoom="0.49497475"
     inkscape:cx="792.96975"
     inkscape:cy="597.00015"
     inkscape:document-units="mm"
     inkscape:current-layer="layer1"
     showgrid="false"
     inkscape:showpageshadow="false"
     units="px"
     showguides="true"
     inkscape:guide-bbox="true"
     inkscape:window-width="1920"
     inkscape:window-height="1017"
     inkscape:window-x="-8"
     inkscape:window-y="-8"
     inkscape:window-maximized="1"
     inkscape:pagecheckerboard="0" />
  <metadata
     id="metadata5">
    <rdf:RDF>
      <cc:Work
         rdf:about="">
        <dc:format>image/svg+xml</dc:format>
        <dc:type
           rdf:resource="http://purl.org/dc/dcmitype/StillImage" />
      </cc:Work>
    </rdf:RDF>
  </metadata>
  <g
     inkscape:label="Layer"
     inkscape:groupmode="layer"
     id="layer1"
     transform="translate(0,-11.249983)">
    <rect
       id="rect3713"
       width="508"
       height="285.76004"
       x="0"
       y="11.239943"
       style="fill:#000000;fill-opacity:1;stroke-width:0.26458332"
       inkscape:export-xdpi="96"
       inkscape:export-ydpi="96" />
    <circle
       style="fill:#101010;fill-opacity:1;stroke-width:2.3558948"
       id="circle851"
       cx="254"
       cy="154.11996"
       r="193.95474"
       clip-path="url(#clipPath855)"
       inkscape:export-xdpi="96"
       inkscape:export-ydpi="96" />
    <circle
       r="115.16135"
       cy="154.11996"
       cx="254"
       id="circle849"
       style="fill:#202020;fill-opacity:1;stroke-width:1.39882123"
       inkscape:export-xdpi="96"
       inkscape:export-ydpi="96" />
    <circle
       style="fill:#303030;fill-opacity:1;stroke-width:0.98435748"
       id="circle847"
       cx="254"
       cy="154.11996"
       r="81.039619"
       inkscape:export-xdpi="96"
       inkscape:export-ydpi="96" />
    <ellipse
       style="fill:#404040;fill-opacity:1;stroke-width:0.673024"
       id="circle843"
       cx="254"
       cy="154.11996"
       inkscape:label="circle843"
       inkscape:export-xdpi="96"
       inkscape:export-ydpi="96"
       rx="55.408001"
       ry="55.408344" />
    <path
       d="m 253.98986,98.684965 c -4.93591,12.098625 -7.91273,20.012585 -13.40793,31.751615 3.36922,3.57059 7.50487,7.72898 14.22105,12.42546 -7.22054,-2.9707 -12.14608,-5.9532 -15.82688,-9.04808 -7.03273,14.67228 -18.0512,35.57237 -40.41109,75.741 17.57427,-10.14389 31.19734,-16.39782 43.89358,-18.78405 -0.54522,-2.3444 -0.85522,-4.88016 -0.83421,-7.52621 l 0.0206,-0.56295 c 0.15744,-6.3692 2.10128,-11.90603 5.01613,-15.40695 2.23673,-2.68675 5.04546,-4.17437 8.05811,-3.91912 2.54332,0.2154 4.87886,1.64276 6.80361,3.91912 3.32621,3.93372 5.42552,10.40273 5.24887,17.53351 -0.0533,2.1182 -0.29133,4.15609 -0.70884,6.04595 12.55821,2.45623 26.0358,8.69401 43.37213,18.7007 -3.41837,-6.29229 -6.46952,-11.96437 -9.38344,-17.3664 -4.58972,-3.55659 -9.37704,-8.18568 -19.14208,-13.19681 6.71181,1.74373 11.5176,3.75562 15.26351,6.00424 -29.62539,-55.14689 -32.02442,-62.47484 -42.18352,-86.311025 z"
       id="path2518"
       style="fill:#ff0000;fill-opacity:1;fill-rule:evenodd;stroke:none;stroke-width:0.667194"
       sodipodi:nodetypes="ccccccccssssccccccc"
       inkscape:export-filename="D:\Git\Matcha-wallpapers\Test2a.png"
       inkscape:export-xdpi="96"
       inkscape:export-ydpi="96" />
  </g>
</svg>
