<?xml version="1.0" encoding="UTF-8" standalone="no"?>
<!-- Created with Inkscape (http://www.inkscape.org/) -->

<svg
   width="1920"
   height="1080"
   viewBox="0 0 507.99999 285.75001"
   version="1.1"
   id="svg8"
   inkscape:version="1.1 (c68e22c387, 2021-05-23)"
   sodipodi:docname="debian-spot.svg"
   xmlns:inkscape="http://www.inkscape.org/namespaces/inkscape"
   xmlns:sodipodi="http://sodipodi.sourceforge.net/DTD/sodipodi-0.dtd"
   xmlns="http://www.w3.org/2000/svg"
   xmlns:svg="http://www.w3.org/2000/svg"
   xmlns:rdf="http://www.w3.org/1999/02/22-rdf-syntax-ns#"
   xmlns:cc="http://creativecommons.org/ns#"
   xmlns:dc="http://purl.org/dc/elements/1.1/">
  <defs
     id="defs2">
    <clipPath
       clipPathUnits="userSpaceOnUse"
       id="clipPath4732">
      <rect
         style="fill:#ff2a2a;fill-opacity:1;stroke-width:0.26458332"
         id="rect4734"
         width="508"
         height="285.75"
         x="0"
         y="11.249983" />
    </clipPath>
    <clipPath
       clipPathUnits="userSpaceOnUse"
       id="clipPath855">
      <rect
         style="fill:#000000;fill-opacity:1;stroke-width:1.33057594"
         id="rect857"
         width="508"
         height="285.75"
         x="0"
         y="11.249984" />
    </clipPath>
    <clipPath
       id="clipPath833"
       clipPathUnits="userSpaceOnUse">
      <path
         inkscape:connector-curvature="0"
         id="path831"
         d="M 0,500 H 750 V 0 H 0 Z" />
    </clipPath>
    <clipPath
       id="clipPath1105"
       clipPathUnits="userSpaceOnUse">
      <path
         inkscape:connector-curvature="0"
         id="path1103"
         d="M 0,500 H 750 V 0 H 0 Z" />
    </clipPath>
  </defs>
  <sodipodi:namedview
     id="base"
     pagecolor="#fffffe"
     bordercolor="#666666"
     borderopacity="1.0"
     inkscape:pageopacity="0.0"
     inkscape:pageshadow="2"
     inkscape:zoom="0.49497475"
     inkscape:cx="871.76164"
     inkscape:cy="643.46717"
     inkscape:document-units="mm"
     inkscape:current-layer="layer1"
     showgrid="false"
     inkscape:showpageshadow="false"
     units="px"
     showguides="true"
     inkscape:guide-bbox="true"
     inkscape:window-width="1920"
     inkscape:window-height="1017"
     inkscape:window-x="-8"
     inkscape:window-y="-8"
     inkscape:window-maximized="1"
     inkscape:pagecheckerboard="0" />
  <metadata
     id="metadata5">
    <rdf:RDF>
      <cc:Work
         rdf:about="">
        <dc:format>image/svg+xml</dc:format>
        <dc:type
           rdf:resource="http://purl.org/dc/dcmitype/StillImage" />
      </cc:Work>
    </rdf:RDF>
  </metadata>
  <g
     inkscape:label="Layer"
     inkscape:groupmode="layer"
     id="layer1"
     transform="translate(0,-11.249983)">
    <rect
       id="rect3713"
       width="508"
       height="285.76004"
       x="0"
       y="11.239943"
       style="fill:#000000;fill-opacity:1;stroke-width:0.26458332"
       inkscape:export-xdpi="96"
       inkscape:export-ydpi="96" />
    <circle
       style="fill:#101010;fill-opacity:1;stroke-width:2.3558948"
       id="circle851"
       cx="254"
       cy="154.11996"
       r="193.95474"
       clip-path="url(#clipPath855)"
       inkscape:export-xdpi="96"
       inkscape:export-ydpi="96" />
    <circle
       r="115.16135"
       cy="154.11996"
       cx="254"
       id="circle849"
       style="fill:#202020;fill-opacity:1;stroke-width:1.39882123"
       inkscape:export-xdpi="96"
       inkscape:export-ydpi="96" />
    <circle
       style="fill:#303030;fill-opacity:1;stroke-width:0.98435748"
       id="circle847"
       cx="254"
       cy="154.11996"
       r="81.039619"
       inkscape:export-xdpi="96"
       inkscape:export-ydpi="96" />
    <ellipse
       style="fill:#404040;fill-opacity:1;stroke-width:0.673024"
       id="circle843"
       cx="254"
       cy="154.11996"
       inkscape:label="circle843"
       inkscape:export-xdpi="96"
       inkscape:export-ydpi="96"
       rx="55.408001"
       ry="55.408344" />
    <path
       id="path3829"
       style="fill:#ff0000;fill-opacity:1;stroke-width:0.875994"
       d="m 259.53828,106.61997 c -1.47168,0.12352 -2.93606,0.19684 -4.38233,0.38343 l 0.63653,0.0867 c 1.06435,-0.3898 2.61665,-0.21347 3.7458,-0.47014 z m -6.42801,0.67705 c -2.3932,0.14541 -5.71316,1.3928 -4.68825,0.25841 -3.90341,1.74146 -10.83613,4.18639 -14.72641,7.834 l -0.12238,-0.81747 c -1.78265,2.14005 -7.77347,6.39139 -8.25091,9.16303 l -0.47677,0.11137 c -0.92769,1.57064 -1.52773,3.35071 -2.26356,4.96691 -1.21324,2.06734 -1.77805,0.79534 -1.60547,1.11946 -2.38619,4.8381 -3.57135,8.90343 -4.59539,12.23746 0.72971,1.09061 0.0174,6.56549 0.2932,10.94719 -1.19835,21.64048 15.18821,42.65206 33.09959,47.5033 2.62535,0.93907 6.5293,0.90291 9.85018,0.99929 -3.91831,-1.1204 -4.42451,-0.59353 -8.24119,-1.92417 -2.75327,-1.29647 -3.35683,-2.77706 -5.30678,-4.46947 l 0.77171,1.36377 c -3.82457,-1.3534 -2.22387,-1.67472 -5.3354,-2.66021 l 0.82407,-1.07676 c -1.2395,-0.0938 -3.28328,-2.08912 -3.84215,-3.19373 l -1.35585,0.0533 c -1.62936,-2.0104 -2.49744,-3.45916 -2.43437,-4.58129 l -0.43803,0.78049 c -0.49666,-0.85233 -5.99446,-7.53956 -3.14223,-5.98292 -0.52999,-0.48443 -1.23425,-0.78842 -1.99812,-2.17598 l 0.58062,-0.66428 c -1.37268,-1.76599 -2.52638,-4.02954 -2.43877,-4.78378 0.73234,0.989 1.24044,1.17402 1.74324,1.34309 -3.46628,-8.60047 -3.66043,-0.47377 -6.28581,-8.7545 l 0.55512,-0.0448 c -0.42575,-0.64124 -0.68407,-1.33776 -1.02658,-2.02102 l 0.24168,-2.40884 c -2.49568,-2.88551 -0.69812,-12.26924 -0.33809,-17.41568 0.24966,-2.09275 2.08311,-4.32032 3.4777,-7.81376 l -0.84962,-0.14616 c 1.6241,-2.83296 9.27342,-11.37726 12.81592,-10.93751 1.71605,-2.15581 -0.34111,-0.008 -0.67663,-0.55115 3.76939,-3.90077 4.95473,-2.75575 7.49861,-3.45742 2.74361,-1.62847 -2.35475,0.63503 -1.05389,-0.62114 4.74263,-1.2115 3.3611,-2.754 9.54822,-3.36894 0.65262,0.37141 -1.51445,0.57383 -2.05842,1.05562 3.95158,-1.93331 12.50464,-1.49385 18.06016,1.07281 6.44641,3.01252 13.6894,11.91801 13.97497,20.29685 l 0.32486,0.0876 c -0.16469,3.33051 0.51002,7.18236 -0.65855,10.72049 l 0.79501,-1.67501 c 0.0938,2.54563 -0.74427,3.78061 -1.50024,5.96707 l -1.36068,0.6797 c -1.11341,2.16194 0.10777,1.37291 -0.68938,3.09249 -1.73796,1.54524 -5.27419,4.8355 -6.40598,5.13596 -0.82605,-0.0185 0.55955,-0.97522 0.74088,-1.35015 -2.32662,1.5978 -1.86646,2.39836 -5.42473,3.36896 l -0.10433,-0.23112 c -8.77568,4.12853 -20.96609,-4.0532 -20.80576,-15.2168 -0.0938,0.70866 -0.26597,0.53189 -0.46045,0.81835 -0.45287,-5.74388 2.65238,-11.51335 7.8899,-13.86889 5.1228,-2.536 11.12867,-1.49526 14.7982,1.9246 -2.01565,-2.64023 -6.02769,-5.43882 -10.78257,-5.17689 -4.65764,0.0736 -9.01499,3.03347 -10.46913,6.24661 -2.38619,1.50232 -2.66282,5.791 -3.70263,6.57589 -1.39894,10.2815 2.63131,14.72382 9.44916,19.94909 0.54296,0.3661 0.61328,0.5749 0.56962,0.76333 0.002,-0.002 0.004,-0.006 0.006,-0.007 8.04334,3.00465 16.35215,2.27583 23.31189,-3.30334 1.77037,-1.37881 3.70458,-3.72481 4.26344,-3.75724 -0.84182,1.26581 0.14377,0.60876 -0.50269,1.72653 1.76424,-2.84522 -0.76651,-1.15785 1.82379,-4.91321 l 0.95656,1.31755 c -0.35564,-2.36166 2.93279,-5.22969 2.59902,-8.96492 0.75421,-1.1423 0.84204,1.22873 0.0414,3.8567 1.11076,-2.91529 0.29243,-3.38375 0.578,-5.78923 0.30835,0.80854 0.71288,1.66788 0.92049,2.52109 -0.72355,-2.81718 0.74315,-4.74453 1.10579,-6.38175 -0.35738,-0.15855 -1.11679,1.24569 -1.29024,-2.08221 0.0254,-1.44539 0.40179,-0.75764 0.5472,-1.11329 -0.28381,-0.16294 -1.02843,-1.2711 -1.48132,-3.39624 0.3285,-0.49932 0.87784,1.2946 1.32457,1.36818 -0.28731,-1.68978 -0.78234,-2.978 -0.80248,-4.27445 -1.30524,-2.72783 -0.46142,0.36332 -1.5205,-1.17141 -1.38931,-4.33352 1.15292,-1.00574 1.32461,-2.97496 2.1059,3.05107 3.30659,7.77966 3.85757,9.73838 -0.42047,-2.38795 -1.10033,-4.70135 -1.92989,-6.9395 0.63946,0.26892 -1.02991,-4.91345 0.83156,-1.48132 -1.98851,-7.31628 -8.51016,-14.15233 -14.50983,-17.36021 0.73406,0.67188 1.66054,1.51543 1.32766,1.64771 -2.98359,-1.77651 -2.45856,-1.9152 -2.88603,-2.66592 -2.43087,-0.98899 -2.59041,0.0801 -4.20049,0.002 -4.58143,-2.43 -5.46458,-2.17179 -9.68072,-3.69426 l 0.19193,0.89627 c -3.0353,-1.01089 -3.53654,0.38371 -6.81711,0.004 -0.19975,-0.15592 1.05116,-0.56423 2.08043,-0.71402 -2.93456,0.38719 -2.79667,-0.57805 -5.66818,0.10698 0.70778,-0.49669 1.45565,-0.82535 2.21075,-1.24757 z m 1.98712,59.04654 c -0.0205,0.0198 -0.0265,0.0472 -0.0264,0.0779 0.01,-0.0259 0.0203,-0.0515 0.0264,-0.0779 z m -0.0264,0.0779 c -0.0575,0.1551 -0.15708,0.30954 -0.0955,0.54278 -2.26532,-1.06081 -4.33987,-2.66219 -6.04542,-4.62267 0.90491,1.3245 1.88167,2.61207 3.14398,3.62385 -2.13567,-0.72359 -4.98875,-5.17517 -5.82181,-5.35652 3.68179,6.59182 14.93761,11.56027 20.83128,9.09525 -2.72694,0.10072 -6.19168,0.0562 -9.25592,-1.07633 -1.18363,-0.60916 -2.75494,-1.81658 -2.7566,-2.20636 z m 0.41072,-58.57594 c 0.84006,0.15066 1.81521,0.26602 1.67854,0.46662 0.91893,-0.20148 1.12726,-0.38692 -1.67854,-0.46662 z m 1.67854,0.46662 -0.59428,0.12281 0.55289,-0.0494 z m -38.73299,18.64739 c 0.2453,2.27057 -1.70819,3.15182 0.43274,1.65476 1.14754,-2.58506 -0.44849,-0.71395 -0.43274,-1.65476 z m -1.745,7.20935 c -1.36303,1.74234 -0.62714,2.11374 -0.77081,3.29895 0.49319,-1.5137 0.58249,-2.42295 0.77081,-3.29895 z m 56.09673,10.5246 c -0.19468,0.006 -0.44436,0.49929 -0.57007,1.04023 0.29346,0.15241 0.52529,1.99806 0.80909,0.85663 0.0951,-1.41734 -0.0444,-1.9018 -0.23902,-1.89686 z m 17.21319,4.7763 -0.23112,0.57976 c -0.42398,3.01165 -1.33965,5.99207 -2.74299,8.75493 1.5505,-2.91529 2.55364,-6.10404 2.97411,-9.33469 z m -18.23098,1.0609 c -0.21023,1.04419 -0.77703,1.94528 -1.3105,2.8966 -2.94244,1.85273 -0.27678,-1.10004 -0.002,-2.22218 -3.16407,3.98225 -0.43462,2.38805 -0.54938,3.50057 v 0 c 0.93732,-1.29385 1.62074,-2.71032 1.86164,-4.17499 z m -6.41564,6.08022 c -1.27981,0.31361 -2.58278,0.32074 -3.89503,0.20074 -1.57414,0.0219 0.29791,0.81115 2.35296,1.12738 0.56764,-0.44326 1.08304,-0.89188 1.54207,-1.32812 z m -19.86501,0.20514 c 0.34688,1.27631 1.0572,2.37266 1.71859,3.48781 l -0.48427,-1.42761 c -0.54747,-0.60532 -0.87167,-1.334 -1.23432,-2.0602 z m -1.21146,2.1566 -0.22102,1.10361 c 1.03454,1.40509 1.85556,2.92769 3.1766,4.02617 -0.9505,-1.85533 -1.6565,-2.62181 -2.95558,-5.12978 z" />
  </g>
</svg>
