<?xml version="1.0" encoding="UTF-8" standalone="no"?>
<!-- Created with Inkscape (http://www.inkscape.org/) -->

<svg
   width="1920"
   height="1080"
   viewBox="0 0 507.99999 285.75001"
   version="1.1"
   id="svg8"
   inkscape:version="1.1 (c4e8f9ed74, 2021-05-24)"
   sodipodi:docname="fedora-spot.svg"
   xmlns:inkscape="http://www.inkscape.org/namespaces/inkscape"
   xmlns:sodipodi="http://sodipodi.sourceforge.net/DTD/sodipodi-0.dtd"
   xmlns:xlink="http://www.w3.org/1999/xlink"
   xmlns="http://www.w3.org/2000/svg"
   xmlns:svg="http://www.w3.org/2000/svg"
   xmlns:rdf="http://www.w3.org/1999/02/22-rdf-syntax-ns#"
   xmlns:cc="http://creativecommons.org/ns#"
   xmlns:dc="http://purl.org/dc/elements/1.1/">
  <defs
     id="defs2">
    <clipPath
       clipPathUnits="userSpaceOnUse"
       id="clipPath4732">
      <rect
         style="fill:#ff2a2a;fill-opacity:1;stroke-width:0.26458332"
         id="rect4734"
         width="508"
         height="285.75"
         x="0"
         y="11.249983" />
    </clipPath>
    <clipPath
       clipPathUnits="userSpaceOnUse"
       id="clipPath855">
      <rect
         style="fill:#000000;fill-opacity:1;stroke-width:1.33057594"
         id="rect857"
         width="508"
         height="285.75"
         x="0"
         y="11.249984" />
    </clipPath>
    <clipPath
       id="clipPath833"
       clipPathUnits="userSpaceOnUse">
      <path
         inkscape:connector-curvature="0"
         id="path831"
         d="M 0,500 H 750 V 0 H 0 Z" />
    </clipPath>
    <clipPath
       id="clipPath1105"
       clipPathUnits="userSpaceOnUse">
      <path
         inkscape:connector-curvature="0"
         id="path1103"
         d="M 0,500 H 750 V 0 H 0 Z" />
    </clipPath>
  </defs>
  <sodipodi:namedview
     id="base"
     pagecolor="#fffffe"
     bordercolor="#666666"
     borderopacity="1.0"
     inkscape:pageopacity="0.0"
     inkscape:pageshadow="2"
     inkscape:zoom="0.7"
     inkscape:cx="720"
     inkscape:cy="610"
     inkscape:document-units="mm"
     inkscape:current-layer="layer1"
     showgrid="false"
     inkscape:showpageshadow="false"
     units="px"
     showguides="true"
     inkscape:guide-bbox="true"
     inkscape:window-width="1920"
     inkscape:window-height="1047"
     inkscape:window-x="0"
     inkscape:window-y="0"
     inkscape:window-maximized="1"
     inkscape:pagecheckerboard="0" />
  <metadata
     id="metadata5">
    <rdf:RDF>
      <cc:Work
         rdf:about="">
        <dc:format>image/svg+xml</dc:format>
        <dc:type
           rdf:resource="http://purl.org/dc/dcmitype/StillImage" />
      </cc:Work>
    </rdf:RDF>
  </metadata>
  <g
     inkscape:label="Layer"
     inkscape:groupmode="layer"
     id="layer1"
     transform="translate(0,-11.249983)">
    <rect
       id="rect3713"
       width="508"
       height="285.76004"
       x="0"
       y="11.239943"
       style="fill:#000000;fill-opacity:1;stroke-width:0.26458332"
       inkscape:export-xdpi="96"
       inkscape:export-ydpi="96" />
    <circle
       style="fill:#101010;fill-opacity:1;stroke-width:2.3558948"
       id="circle851"
       cx="254"
       cy="154.11996"
       r="193.95474"
       clip-path="url(#clipPath855)"
       inkscape:export-xdpi="96"
       inkscape:export-ydpi="96" />
    <circle
       r="115.16135"
       cy="154.11996"
       cx="254"
       id="circle849"
       style="fill:#202020;fill-opacity:1;stroke-width:1.39882123"
       inkscape:export-xdpi="96"
       inkscape:export-ydpi="96" />
    <circle
       style="fill:#303030;fill-opacity:1;stroke-width:0.98435748"
       id="circle847"
       cx="254"
       cy="154.11996"
       r="81.039619"
       inkscape:export-xdpi="96"
       inkscape:export-ydpi="96" />
    <ellipse
       style="fill:#404040;fill-opacity:1;stroke-width:0.673024"
       id="circle843"
       cx="254"
       cy="154.11996"
       inkscape:label="circle843"
       inkscape:export-xdpi="96"
       inkscape:export-ydpi="96"
       rx="55.408001"
       ry="55.408344" />
    <g
       id="g1098"
       transform="matrix(0.26440722,0,0,0.26440722,-2.4755983,11.340027)">
      <path
         d="m 1149.6515,540.00841 c 0,-99.21961 -80.4332,-179.65541 -179.6521,-179.65541 -99.1742,0 -179.57604,80.36825 -179.6464,179.52872 v 139.02387 c 0.0533,22.51501 18.31393,40.74169 40.8431,40.74169 h 138.8762 c 99.1858,-0.0389 179.5792,-80.44565 179.5792,-179.63887"
         id="voice"
         style="fill:#ff0000;fill-opacity:1;stroke-width:1.34947" />
      <path
         d="m 893.92761,551.60229 c 0,0 64.56509,0 64.56509,0 0,0 0,64.56512 0,64.56512 0,35.63991 -28.9252,64.56505 -64.56509,64.56505 -35.63993,0 -64.56509,-28.92514 -64.56509,-64.56505 0,-35.63994 28.92516,-64.56512 64.56509,-64.56512 z"
         id="in"
         style="fill:#ff0000;fill-opacity:1;stroke:#aa0000;stroke-width:39.418;stroke-opacity:0.698039" />
      <use
         transform="rotate(180,958.3371,551.66508)"
         id="finity"
         xlink:href="#in"
         x="0"
         y="0"
         width="100%"
         height="100%"
         style="opacity:1;fill:#ff000f;fill-opacity:1;stroke:#a63631;stroke-opacity:0.7" />
      <path
         d="m 978.244,531.94275 v 84.13434 c 0,46.56216 -37.7519,84.31492 -84.31571,84.31492 -7.0644,0 -12.08652,-0.79756 -18.62587,-2.50692 -9.53529,-2.49533 -17.32782,-10.31336 -17.33106,-19.40688 0,-10.99161 7.97856,-18.98691 19.90507,-18.98691 5.67638,0 7.73608,1.0899 16.05186,1.0899 24.54901,0 44.46191,-19.88471 44.50491,-44.43374 v -38.67119 c 0,-3.46511 -2.8158,-6.27268 -6.2867,-6.27268 l -29.23659,-0.005 c -10.89309,0 -19.69418,-8.68847 -19.69418,-19.6114 -0.005,-10.99084 8.89138,-19.64365 19.9021,-19.64365"
         id="free"
         style="fill:#101010;fill-opacity:1;stroke-width:1.34947" />
      <use
         transform="rotate(180,958.3371,551.66508)"
         id="dom"
         xlink:href="#free"
         x="0"
         y="0"
         width="100%"
         height="100%"
         style="fill:#222222;fill-opacity:1" />
    </g>
  </g>
</svg>
