<?xml version="1.0" encoding="UTF-8" standalone="no"?>
<svg
   id="Layer_1"
   data-name="Layer 1"
   viewBox="0 0 1920 1080"
   version="1.1"
   sodipodi:docname="pop-stripe.svg"
   width="1920"
   height="1080"
   inkscape:version="1.1 (c68e22c387, 2021-05-23)"
   inkscape:export-filename="D:\Git\Matcha-wallpapers\Test.png"
   inkscape:export-xdpi="96"
   inkscape:export-ydpi="96"
   xmlns:inkscape="http://www.inkscape.org/namespaces/inkscape"
   xmlns:sodipodi="http://sodipodi.sourceforge.net/DTD/sodipodi-0.dtd"
   xmlns:xlink="http://www.w3.org/1999/xlink"
   xmlns="http://www.w3.org/2000/svg"
   xmlns:svg="http://www.w3.org/2000/svg"
   xmlns:rdf="http://www.w3.org/1999/02/22-rdf-syntax-ns#"
   xmlns:cc="http://creativecommons.org/ns#"
   xmlns:dc="http://purl.org/dc/elements/1.1/">
  <metadata
     id="metadata13">
    <rdf:RDF>
      <cc:Work
         rdf:about="">
        <dc:format>image/svg+xml</dc:format>
        <dc:type
           rdf:resource="http://purl.org/dc/dcmitype/StillImage" />
        <dc:title>Android robot</dc:title>
      </cc:Work>
    </rdf:RDF>
  </metadata>
  <sodipodi:namedview
     pagecolor="#fffffe"
     bordercolor="#666666"
     borderopacity="1"
     objecttolerance="10"
     gridtolerance="10"
     guidetolerance="10"
     inkscape:pageopacity="0"
     inkscape:pageshadow="2"
     inkscape:window-width="1920"
     inkscape:window-height="1017"
     id="namedview11"
     showgrid="false"
     fit-margin-top="0"
     fit-margin-left="0"
     fit-margin-right="0"
     fit-margin-bottom="0"
     inkscape:zoom="0.44981343"
     inkscape:cx="752.53422"
     inkscape:cy="532.44297"
     inkscape:window-x="-8"
     inkscape:window-y="-8"
     inkscape:window-maximized="1"
     inkscape:current-layer="g1019"
     inkscape:document-rotation="0"
     inkscape:snap-intersection-paths="true"
     inkscape:object-paths="true"
     inkscape:pagecheckerboard="0"
     showguides="false" />
  <defs
     id="defs4">
    <style
       id="style2">.cls-1{fill:#3ddc84;}</style>
    <inkscape:perspective
       sodipodi:type="inkscape:persp3d"
       inkscape:vp_x="0 : 384 : 1"
       inkscape:vp_y="0 : 1000 : 0"
       inkscape:vp_z="1024 : 384 : 1"
       inkscape:persp3d-origin="512 : 256 : 1"
       id="perspective279" />
    <pattern
       inkscape:collect="always"
       xlink:href="#pattern4481"
       id="pattern4486"
       patternTransform="matrix(0.4295427,0,0,0.4295427,-4.3554687e-6,-4.3457032e-7)" />
    <pattern
       inkscape:collect="always"
       xlink:href="#pattern4467"
       id="pattern4481"
       patternTransform="matrix(0.4295427,0,0,0.4295427,-130.66779,-129.37468)" />
    <linearGradient
       id="linearGradient3588">
      <stop
         style="stop-color:#bfe699;stop-opacity:1;"
         offset="0"
         id="stop3590" />
      <stop
         style="stop-color:#313e24;stop-opacity:1;"
         offset="1"
         id="stop3592" />
    </linearGradient>
    <linearGradient
       id="linearGradient3570">
      <stop
         id="stop3572"
         offset="0"
         style="stop-color:#e5ffcb;stop-opacity:1;" />
      <stop
         id="stop3574"
         offset="1"
         style="stop-color:#bfff80;stop-opacity:1;" />
    </linearGradient>
    <linearGradient
       id="linearGradient3303">
      <stop
         style="stop-color:#bfff80;stop-opacity:1;"
         offset="0"
         id="stop3305" />
      <stop
         style="stop-color:#6a8b4a;stop-opacity:1;"
         offset="1"
         id="stop3307" />
    </linearGradient>
    <linearGradient
       id="linearGradient3431">
      <stop
         id="stop3433"
         offset="0"
         style="stop-color:#3d3d3d;stop-opacity:1;" />
      <stop
         id="stop3435"
         offset="1"
         style="stop-color:#ff0000;stop-opacity:0.11400651;" />
    </linearGradient>
    <linearGradient
       id="linearGradient3349">
      <stop
         style="stop-color:#d3d3d3;stop-opacity:1;"
         offset="0"
         id="stop3351" />
      <stop
         style="stop-color:#ff0000;stop-opacity:1;"
         offset="1"
         id="stop3353" />
    </linearGradient>
    <linearGradient
       id="linearGradient3312">
      <stop
         style="stop-color:#c7f994;stop-opacity:1;"
         offset="0"
         id="stop3314" />
      <stop
         style="stop-color:#87cf3e;stop-opacity:1;"
         offset="1"
         id="stop3316" />
    </linearGradient>
    <linearGradient
       inkscape:collect="always"
       xlink:href="#linearGradient3312"
       id="linearGradient3335"
       gradientUnits="userSpaceOnUse"
       x1="61.42857"
       y1="362.14285"
       x2="116.42857"
       y2="408.57144" />
    <linearGradient
       inkscape:collect="always"
       xlink:href="#linearGradient3349"
       id="linearGradient3374"
       gradientUnits="userSpaceOnUse"
       x1="140.66374"
       y1="424.33243"
       x2="67.175148"
       y2="348.57098" />
    <linearGradient
       inkscape:collect="always"
       xlink:href="#linearGradient3312"
       id="linearGradient3377"
       gradientUnits="userSpaceOnUse"
       x1="61.42857"
       y1="362.14285"
       x2="116.42857"
       y2="408.57144"
       gradientTransform="translate(0,-9.49911)" />
    <linearGradient
       inkscape:collect="always"
       xlink:href="#linearGradient3312"
       id="linearGradient3416"
       gradientUnits="userSpaceOnUse"
       gradientTransform="matrix(1,0,0,-1,0,649.49911)"
       x1="61.42857"
       y1="362.14285"
       x2="116.42857"
       y2="408.57144" />
    <linearGradient
       inkscape:collect="always"
       xlink:href="#linearGradient3431"
       id="linearGradient2259"
       gradientUnits="userSpaceOnUse"
       spreadMethod="pad"
       x1="70.491508"
       y1="416.38858"
       x2="113.64215"
       y2="375.87961" />
    <linearGradient
       inkscape:collect="always"
       xlink:href="#linearGradient3588"
       id="linearGradient3737"
       gradientUnits="userSpaceOnUse"
       x1="26.795013"
       y1="216.34912"
       x2="149.90654"
       y2="323.98651" />
    <pattern
       patternUnits="userSpaceOnUse"
       width="256"
       height="256"
       patternTransform="translate(-297.8418,85.357452)"
       id="pattern4467">
      <image
         xlink:href="../../123381-mint-logo-white-bg1-Dateien/metal5.html"
         y="0"
         x="0"
         id="image4464"
         height="256"
         width="256" />
    </pattern>
    <pattern
       patternUnits="userSpaceOnUse"
       width="109.96293"
       height="109.96293"
       patternTransform="translate(-130.66779,-129.37468)"
       id="pattern4483">
      <rect
         id="rect4470"
         y="0"
         x="0"
         height="109.96293"
         width="109.96293"
         style="fill:url(#pattern4486);stroke:none" />
    </pattern>
    <linearGradient
       inkscape:collect="always"
       xlink:href="#linearGradient3349"
       id="linearGradient3000"
       gradientUnits="userSpaceOnUse"
       gradientTransform="matrix(1.0484996,0,0,1.0484996,59.525242,85.095989)"
       x1="148.5945"
       y1="426.11398"
       x2="100.47015"
       y2="379.95963" />
    <linearGradient
       inkscape:collect="always"
       xlink:href="#linearGradient3312"
       id="linearGradient3006"
       gradientUnits="userSpaceOnUse"
       gradientTransform="matrix(1.0484996,0,0,1.0484996,59.525242,75.136176)"
       x1="61.42857"
       y1="362.14285"
       x2="116.42857"
       y2="408.57144" />
    <linearGradient
       inkscape:collect="always"
       xlink:href="#linearGradient3312"
       id="linearGradient4003"
       gradientUnits="userSpaceOnUse"
       gradientTransform="matrix(1.0484996,0,0,1.0484996,210.01137,213.49817)"
       x1="61.42857"
       y1="362.14285"
       x2="116.42857"
       y2="408.57144" />
    <linearGradient
       inkscape:collect="always"
       xlink:href="#linearGradient3349"
       id="linearGradient4007"
       gradientUnits="userSpaceOnUse"
       gradientTransform="matrix(1.0484996,0,0,1.0484996,210.01137,223.45798)"
       x1="148.5945"
       y1="426.11398"
       x2="100.47015"
       y2="379.95963" />
  </defs>
  <title
     id="title6">Android robot</title>
  <g
     id="g1019">
    <rect
       style="fill:#101010;fill-opacity:1;fill-rule:nonzero;stroke-width:104.97;stroke-linecap:round;stroke-linejoin:round;paint-order:stroke markers fill"
       id="rect835"
       width="1920"
       height="1080"
       x="-7.4218752e-07"
       y="5.2734376e-06"
       inkscape:export-filename="E:\Personal Files\Pictures\Linux Wallpaper\Arch\arch-alice.png"
       inkscape:export-xdpi="96"
       inkscape:export-ydpi="96" />
    <path
       style="fill:#303030;fill-opacity:1;stroke:none;stroke-width:11.6694;stroke-linejoin:round;stroke-miterlimit:4;stroke-dasharray:none;stroke-opacity:1;paint-order:stroke markers fill"
       d="M -7.4218747e-7,500.12952 V 580 H 1919.886 c 0.2884,-85.59051 0,0 -0.5329,-79.57819 C 1279.5702,499.69337 639.78386,500.12952 -7.4218747e-7,500.12952 Z"
       id="path4016-3"
       sodipodi:nodetypes="ccccc" />
    <g
       id="g1841"
       transform="matrix(5.2631579,0,0,5.2631579,-376.84211,-261.87127)">
      <circle
         style="fill:#ffffff;fill-opacity:1;fill-rule:evenodd;stroke-width:0.308148;paint-order:stroke fill markers"
         id="path1247"
         cx="254"
         cy="154.11996"
         r="43.315475" />
      <path
         style="color:#000000;font-style:normal;font-variant:normal;font-weight:normal;font-stretch:normal;font-size:medium;line-height:normal;font-family:sans-serif;font-variant-ligatures:normal;font-variant-position:normal;font-variant-caps:normal;font-variant-numeric:normal;font-variant-alternates:normal;font-variant-east-asian:normal;font-feature-settings:normal;font-variation-settings:normal;text-indent:0;text-align:start;text-decoration:none;text-decoration-line:none;text-decoration-style:solid;text-decoration-color:#000000;letter-spacing:normal;word-spacing:normal;text-transform:none;writing-mode:lr-tb;direction:ltr;text-orientation:mixed;dominant-baseline:auto;baseline-shift:baseline;text-anchor:start;white-space:normal;shape-padding:0;shape-margin:0;inline-size:0;clip-rule:nonzero;display:inline;overflow:visible;visibility:visible;isolation:auto;mix-blend-mode:normal;color-interpolation:sRGB;color-interpolation-filters:linearRGB;solid-color:#000000;solid-opacity:1;vector-effect:none;fill:#ff0000;fill-opacity:1;fill-rule:nonzero;stroke:none;stroke-width:0.244664;stroke-linecap:butt;stroke-linejoin:miter;stroke-miterlimit:0;stroke-dasharray:none;stroke-dashoffset:0;stroke-opacity:1;color-rendering:auto;image-rendering:auto;shape-rendering:auto;text-rendering:auto;enable-background:accumulate;stop-color:#000000"
         d="m 253.96815,106.61996 c -26.22108,0.0176 -47.46815,21.27891 -47.46815,47.5 0,26.23353 21.26649,47.5 47.50002,47.5 26.23352,-2e-5 47.49998,-21.26649 47.49998,-47.5 0,-26.23352 -21.26646,-47.49999 -47.49997,-47.5 0,0 -0.0319,0 -0.0319,0 z m -9.66072,9.96814 c 3.48787,0 6.46661,0.9739 9.10959,2.7003 4.05112,2.65601 6.86713,6.89456 7.90699,11.68644 0.90987,4.21643 0.71501,8.53231 -0.55233,11.29899 -2.54548,5.50015 -6.76985,9.87169 -12.61907,12.0297 1.67894,4.48202 3.39043,8.90872 5.05852,13.37967 0.93154,2.41253 1.8199,5.05733 1.0075,7.43668 -0.84487,2.43467 -4.13809,3.10968 -6.53194,0.52007 -4.60354,-5.00215 -20.16871,-36.6972 -21.3169,-39.07654 -0.97487,-2.04734 -2.4374,-4.23853 -2.39407,-6.60681 0.0759,-3.56348 5.47027,-7.17104 8.0591,-9.01919 3.61783,-2.57854 7.79905,-4.33825 12.27261,-4.34931 z m -4.01561,9.62886 c -3.28192,0.0822 -1.48874,7.06753 -0.77213,8.96305 1.09401,2.93267 2.75118,6.6402 4.97173,8.85354 0.48743,0.48693 1.06153,0.91849 1.72227,1.05128 1.00736,0.21027 1.93874,-0.50888 2.44785,-1.34995 0.42243,-0.6972 0.58504,-1.52726 0.68253,-2.33514 0.18415,-1.71533 0.0217,-3.464 -0.43325,-5.14614 -0.90987,-3.37535 -2.96788,-6.48504 -5.55672,-8.66518 -0.56324,-0.47587 -1.16992,-0.91852 -1.874,-1.162 -0.45493,-0.15251 -0.84876,-0.21797 -1.18828,-0.20946 z m 34.15539,6.33482 c 0.63814,-0.006 1.25622,0.0451 1.79436,0.12583 1.97488,0.29527 3.8653,1.23052 5.29827,2.64536 1.26441,1.2549 1.40912,2.53431 0.97564,4.19521 -0.71048,2.64512 -1.92691,5.17962 -3.09495,7.6525 -0.27694,0.60286 -2.69732,5.29028 -3.02246,5.86852 -5.84033,10.50672 -7.0082,11.52766 -8.66996,10.85099 -1.9628,-0.7997 -1.2885,-11.31883 0.50574,-24.08929 0.50574,-3.56785 1.37249,-5.253 2.34787,-6.11421 0.96037,-0.83736 2.46155,-1.12255 3.86549,-1.13491 z m -7.56929,35.9828 c 2.38203,0.0882 3.32788,3.07741 2.78872,5.34565 -0.22882,0.97194 -0.72245,1.83324 -1.5654,2.37457 -1.32459,0.8489 -2.93815,0.60257 -4.08212,-0.43088 -1.07176,-0.95963 -1.43311,-2.5836 -1.09589,-3.98614 0.34916,-1.46405 1.45698,-2.75584 2.8779,-3.16184 0.29692,-0.0842 0.57759,-0.1296 0.84183,-0.14056 0.0798,-0.003 0.15812,-0.003 0.23496,-8.6e-4 z m -34.27445,11.28544 h 42.55972 c 2.32293,0 4.19321,1.73127 4.19321,3.88181 0,2.15054 -1.87027,3.88181 -4.19321,3.88181 h -42.55972 c -2.32291,0 -4.19282,-1.73127 -4.19282,-3.88181 0,-2.15054 1.86991,-3.88181 4.19282,-3.88181 z"
         id="path1336" />
    </g>
  </g>
  <g
     inkscape:groupmode="layer"
     id="layer2"
     inkscape:label="Top" />
</svg>
