<?xml version="1.0" encoding="UTF-8" standalone="no"?>
<!-- Created with Inkscape (http://www.inkscape.org/) -->

<svg
   width="1920"
   height="1080"
   viewBox="0 0 507.99999 285.75001"
   version="1.1"
   id="svg8"
   inkscape:version="1.1 (c68e22c387, 2021-05-23)"
   sodipodi:docname="pop-spot.svg"
   xmlns:inkscape="http://www.inkscape.org/namespaces/inkscape"
   xmlns:sodipodi="http://sodipodi.sourceforge.net/DTD/sodipodi-0.dtd"
   xmlns="http://www.w3.org/2000/svg"
   xmlns:svg="http://www.w3.org/2000/svg"
   xmlns:rdf="http://www.w3.org/1999/02/22-rdf-syntax-ns#"
   xmlns:cc="http://creativecommons.org/ns#"
   xmlns:dc="http://purl.org/dc/elements/1.1/">
  <defs
     id="defs2">
    <clipPath
       clipPathUnits="userSpaceOnUse"
       id="clipPath4732">
      <rect
         style="fill:#ff2a2a;fill-opacity:1;stroke-width:0.26458332"
         id="rect4734"
         width="508"
         height="285.75"
         x="0"
         y="11.249983" />
    </clipPath>
    <clipPath
       clipPathUnits="userSpaceOnUse"
       id="clipPath855">
      <rect
         style="fill:#000000;fill-opacity:1;stroke-width:1.33057594"
         id="rect857"
         width="508"
         height="285.75"
         x="0"
         y="11.249984" />
    </clipPath>
    <clipPath
       id="clipPath833"
       clipPathUnits="userSpaceOnUse">
      <path
         inkscape:connector-curvature="0"
         id="path831"
         d="M 0,500 H 750 V 0 H 0 Z" />
    </clipPath>
    <clipPath
       id="clipPath1105"
       clipPathUnits="userSpaceOnUse">
      <path
         inkscape:connector-curvature="0"
         id="path1103"
         d="M 0,500 H 750 V 0 H 0 Z" />
    </clipPath>
  </defs>
  <sodipodi:namedview
     id="base"
     pagecolor="#fffffe"
     bordercolor="#666666"
     borderopacity="1.0"
     inkscape:pageopacity="0.0"
     inkscape:pageshadow="2"
     inkscape:zoom="0.7"
     inkscape:cx="670"
     inkscape:cy="550.71428"
     inkscape:document-units="mm"
     inkscape:current-layer="layer1"
     showgrid="false"
     inkscape:showpageshadow="false"
     units="px"
     showguides="true"
     inkscape:guide-bbox="true"
     inkscape:window-width="1920"
     inkscape:window-height="1017"
     inkscape:window-x="-8"
     inkscape:window-y="-8"
     inkscape:window-maximized="1"
     inkscape:pagecheckerboard="0" />
  <metadata
     id="metadata5">
    <rdf:RDF>
      <cc:Work
         rdf:about="">
        <dc:format>image/svg+xml</dc:format>
        <dc:type
           rdf:resource="http://purl.org/dc/dcmitype/StillImage" />
      </cc:Work>
    </rdf:RDF>
  </metadata>
  <g
     inkscape:label="Layer"
     inkscape:groupmode="layer"
     id="layer1"
     transform="translate(0,-11.249983)">
    <rect
       id="rect3713"
       width="508"
       height="285.76004"
       x="0"
       y="11.239943"
       style="fill:#000000;fill-opacity:1;stroke-width:0.26458332"
       inkscape:export-xdpi="96"
       inkscape:export-ydpi="96" />
    <circle
       style="fill:#101010;fill-opacity:1;stroke-width:2.3558948"
       id="circle851"
       cx="254"
       cy="154.11996"
       r="193.95474"
       clip-path="url(#clipPath855)"
       inkscape:export-xdpi="96"
       inkscape:export-ydpi="96" />
    <circle
       r="115.16135"
       cy="154.11996"
       cx="254"
       id="circle849"
       style="fill:#202020;fill-opacity:1;stroke-width:1.39882123"
       inkscape:export-xdpi="96"
       inkscape:export-ydpi="96" />
    <circle
       style="fill:#303030;fill-opacity:1;stroke-width:0.98435748"
       id="circle847"
       cx="254"
       cy="154.11996"
       r="81.039619"
       inkscape:export-xdpi="96"
       inkscape:export-ydpi="96" />
    <ellipse
       style="fill:#404040;fill-opacity:1;stroke-width:0.673024"
       id="circle843"
       cx="254"
       cy="154.11996"
       inkscape:label="circle843"
       inkscape:export-xdpi="96"
       inkscape:export-ydpi="96"
       rx="55.408001"
       ry="55.408344" />
    <g
       id="g1841">
      <circle
         style="fill:#ffffff;fill-rule:evenodd;stroke-width:0.308148;paint-order:stroke fill markers;fill-opacity:1"
         id="path1247"
         cx="254"
         cy="154.11996"
         r="43.315475" />
      <path
         style="color:#000000;font-style:normal;font-variant:normal;font-weight:normal;font-stretch:normal;font-size:medium;line-height:normal;font-family:sans-serif;font-variant-ligatures:normal;font-variant-position:normal;font-variant-caps:normal;font-variant-numeric:normal;font-variant-alternates:normal;font-variant-east-asian:normal;font-feature-settings:normal;font-variation-settings:normal;text-indent:0;text-align:start;text-decoration:none;text-decoration-line:none;text-decoration-style:solid;text-decoration-color:#000000;letter-spacing:normal;word-spacing:normal;text-transform:none;writing-mode:lr-tb;direction:ltr;text-orientation:mixed;dominant-baseline:auto;baseline-shift:baseline;text-anchor:start;white-space:normal;shape-padding:0;shape-margin:0;inline-size:0;clip-rule:nonzero;display:inline;overflow:visible;visibility:visible;isolation:auto;mix-blend-mode:normal;color-interpolation:sRGB;color-interpolation-filters:linearRGB;solid-color:#000000;solid-opacity:1;vector-effect:none;fill:#ff0000;fill-opacity:1;fill-rule:nonzero;stroke:none;stroke-width:0.244664;stroke-linecap:butt;stroke-linejoin:miter;stroke-miterlimit:0;stroke-dasharray:none;stroke-dashoffset:0;stroke-opacity:1;color-rendering:auto;image-rendering:auto;shape-rendering:auto;text-rendering:auto;enable-background:accumulate;stop-color:#000000"
         d="m 253.96815,106.61996 c -26.22108,0.0176 -47.46815,21.27891 -47.46815,47.5 0,26.23353 21.26649,47.5 47.50002,47.5 26.23352,-2e-5 47.49998,-21.26649 47.49998,-47.5 0,-26.23352 -21.26646,-47.49999 -47.49997,-47.5 0,0 -0.0319,0 -0.0319,0 z m -9.66072,9.96814 c 3.48787,0 6.46661,0.9739 9.10959,2.7003 4.05112,2.65601 6.86713,6.89456 7.90699,11.68644 0.90987,4.21643 0.71501,8.53231 -0.55233,11.29899 -2.54548,5.50015 -6.76985,9.87169 -12.61907,12.0297 1.67894,4.48202 3.39043,8.90872 5.05852,13.37967 0.93154,2.41253 1.8199,5.05733 1.0075,7.43668 -0.84487,2.43467 -4.13809,3.10968 -6.53194,0.52007 -4.60354,-5.00215 -20.16871,-36.6972 -21.3169,-39.07654 -0.97487,-2.04734 -2.4374,-4.23853 -2.39407,-6.60681 0.0759,-3.56348 5.47027,-7.17104 8.0591,-9.01919 3.61783,-2.57854 7.79905,-4.33825 12.27261,-4.34931 z m -4.01561,9.62886 c -3.28192,0.0822 -1.48874,7.06753 -0.77213,8.96305 1.09401,2.93267 2.75118,6.6402 4.97173,8.85354 0.48743,0.48693 1.06153,0.91849 1.72227,1.05128 1.00736,0.21027 1.93874,-0.50888 2.44785,-1.34995 0.42243,-0.6972 0.58504,-1.52726 0.68253,-2.33514 0.18415,-1.71533 0.0217,-3.464 -0.43325,-5.14614 -0.90987,-3.37535 -2.96788,-6.48504 -5.55672,-8.66518 -0.56324,-0.47587 -1.16992,-0.91852 -1.874,-1.162 -0.45493,-0.15251 -0.84876,-0.21797 -1.18828,-0.20946 z m 34.15539,6.33482 c 0.63814,-0.006 1.25622,0.0451 1.79436,0.12583 1.97488,0.29527 3.8653,1.23052 5.29827,2.64536 1.26441,1.2549 1.40912,2.53431 0.97564,4.19521 -0.71048,2.64512 -1.92691,5.17962 -3.09495,7.6525 -0.27694,0.60286 -2.69732,5.29028 -3.02246,5.86852 -5.84033,10.50672 -7.0082,11.52766 -8.66996,10.85099 -1.9628,-0.7997 -1.2885,-11.31883 0.50574,-24.08929 0.50574,-3.56785 1.37249,-5.253 2.34787,-6.11421 0.96037,-0.83736 2.46155,-1.12255 3.86549,-1.13491 z m -7.56929,35.9828 c 2.38203,0.0882 3.32788,3.07741 2.78872,5.34565 -0.22882,0.97194 -0.72245,1.83324 -1.5654,2.37457 -1.32459,0.8489 -2.93815,0.60257 -4.08212,-0.43088 -1.07176,-0.95963 -1.43311,-2.5836 -1.09589,-3.98614 0.34916,-1.46405 1.45698,-2.75584 2.8779,-3.16184 0.29692,-0.0842 0.57759,-0.1296 0.84183,-0.14056 0.0798,-0.003 0.15812,-0.003 0.23496,-8.6e-4 z m -34.27445,11.28544 h 42.55972 c 2.32293,0 4.19321,1.73127 4.19321,3.88181 0,2.15054 -1.87027,3.88181 -4.19321,3.88181 h -42.55972 c -2.32291,0 -4.19282,-1.73127 -4.19282,-3.88181 0,-2.15054 1.86991,-3.88181 4.19282,-3.88181 z"
         id="path1336" />
    </g>
  </g>
</svg>
