<?xml version="1.0" encoding="UTF-8" standalone="no"?>
<!-- Created with Inkscape (http://www.inkscape.org/) -->

<svg
   width="1920"
   height="1080"
   viewBox="0 0 507.99999 285.75001"
   version="1.1"
   id="svg8"
   inkscape:version="1.1 (c68e22c387, 2021-05-23)"
   sodipodi:docname="ubuntu-spot.svg"
   xmlns:inkscape="http://www.inkscape.org/namespaces/inkscape"
   xmlns:sodipodi="http://sodipodi.sourceforge.net/DTD/sodipodi-0.dtd"
   xmlns="http://www.w3.org/2000/svg"
   xmlns:svg="http://www.w3.org/2000/svg"
   xmlns:rdf="http://www.w3.org/1999/02/22-rdf-syntax-ns#"
   xmlns:cc="http://creativecommons.org/ns#"
   xmlns:dc="http://purl.org/dc/elements/1.1/">
  <defs
     id="defs2">
    <clipPath
       clipPathUnits="userSpaceOnUse"
       id="clipPath4732">
      <rect
         style="fill:#ff2a2a;fill-opacity:1;stroke-width:0.26458332"
         id="rect4734"
         width="508"
         height="285.75"
         x="0"
         y="11.249983" />
    </clipPath>
    <clipPath
       clipPathUnits="userSpaceOnUse"
       id="clipPath855">
      <rect
         style="fill:#000000;fill-opacity:1;stroke-width:1.33057594"
         id="rect857"
         width="508"
         height="285.75"
         x="0"
         y="11.249984" />
    </clipPath>
    <clipPath
       id="clipPath833"
       clipPathUnits="userSpaceOnUse">
      <path
         inkscape:connector-curvature="0"
         id="path831"
         d="M 0,500 H 750 V 0 H 0 Z" />
    </clipPath>
    <clipPath
       id="clipPath1105"
       clipPathUnits="userSpaceOnUse">
      <path
         inkscape:connector-curvature="0"
         id="path1103"
         d="M 0,500 H 750 V 0 H 0 Z" />
    </clipPath>
  </defs>
  <sodipodi:namedview
     id="base"
     pagecolor="#fffffe"
     bordercolor="#666666"
     borderopacity="1.0"
     inkscape:pageopacity="0.0"
     inkscape:pageshadow="2"
     inkscape:zoom="0.49497475"
     inkscape:cx="936.4114"
     inkscape:cy="560.63466"
     inkscape:document-units="mm"
     inkscape:current-layer="layer1"
     showgrid="false"
     inkscape:showpageshadow="false"
     units="px"
     showguides="true"
     inkscape:guide-bbox="true"
     inkscape:window-width="1920"
     inkscape:window-height="1017"
     inkscape:window-x="-8"
     inkscape:window-y="-8"
     inkscape:window-maximized="1"
     inkscape:pagecheckerboard="0" />
  <metadata
     id="metadata5">
    <rdf:RDF>
      <cc:Work
         rdf:about="">
        <dc:format>image/svg+xml</dc:format>
        <dc:type
           rdf:resource="http://purl.org/dc/dcmitype/StillImage" />
      </cc:Work>
    </rdf:RDF>
  </metadata>
  <g
     inkscape:label="Layer"
     inkscape:groupmode="layer"
     id="layer1"
     transform="translate(0,-11.249983)">
    <rect
       id="rect3713"
       width="508"
       height="285.76004"
       x="0"
       y="11.239943"
       style="fill:#000000;fill-opacity:1;stroke-width:0.26458332"
       inkscape:export-xdpi="96"
       inkscape:export-ydpi="96" />
    <circle
       style="fill:#101010;fill-opacity:1;stroke-width:2.3558948"
       id="circle851"
       cx="254"
       cy="154.11996"
       r="193.95474"
       clip-path="url(#clipPath855)"
       inkscape:export-xdpi="96"
       inkscape:export-ydpi="96" />
    <circle
       r="115.16135"
       cy="154.11996"
       cx="254"
       id="circle849"
       style="fill:#202020;fill-opacity:1;stroke-width:1.39882123"
       inkscape:export-xdpi="96"
       inkscape:export-ydpi="96" />
    <circle
       style="fill:#303030;fill-opacity:1;stroke-width:0.98435748"
       id="circle847"
       cx="254"
       cy="154.11996"
       r="81.039619"
       inkscape:export-xdpi="96"
       inkscape:export-ydpi="96" />
    <ellipse
       style="fill:#404040;fill-opacity:1;stroke-width:0.673024"
       id="circle843"
       cx="254"
       cy="154.11996"
       inkscape:label="circle843"
       inkscape:export-xdpi="96"
       inkscape:export-ydpi="96"
       rx="55.408001"
       ry="55.408344" />
    <g
       id="g966"
       transform="matrix(0.33513956,0,0,0.33514074,182.74966,82.869545)">
      <path
         fill="#e95420"
         d="m 354.331,212.595 c 0,78.279 -63.45,141.735 -141.729,141.735 -78.279,0 -141.735,-63.456 -141.735,-141.735 0,-78.274 63.457,-141.728 141.735,-141.728 78.279,0 141.729,63.453 141.729,141.728 z"
         id="path962"
         style="fill:#ff0000;fill-opacity:1" />
      <path
         fill="#ffffff"
         d="m 139.043,212.595 c 0,10.064 -8.159,18.225 -18.23,18.225 -10.059,0 -18.218,-8.16 -18.218,-18.225 0,-10.06 8.159,-18.219 18.218,-18.219 10.071,0 18.23,8.159 18.23,18.219 z m 103.674,88.606 c 5.033,8.709 16.173,11.696 24.889,6.67 8.715,-5.033 11.701,-16.179 6.669,-24.895 -5.032,-8.715 -16.173,-11.695 -24.888,-6.663 -8.716,5.033 -11.702,16.173 -6.67,24.888 z m 31.557,-158.982 c 5.032,-8.717 2.052,-19.86 -6.669,-24.887 -8.71,-5.032 -19.855,-2.046 -24.889,6.667 -5.032,8.715 -2.046,19.857 6.67,24.889 8.716,5.032 19.862,2.046 24.888,-6.669 z m -61.672,18.413 c 27.153,0 49.434,20.814 51.761,47.364 l 26.372,-0.416 c -1.252,-19.727 -9.809,-37.469 -22.995,-50.551 -6.98,2.693 -15.079,2.327 -22.066,-1.71 -6.992,-4.037 -11.359,-10.871 -12.514,-18.275 -6.554,-1.78 -13.448,-2.733 -20.558,-2.733 -12.471,0 -24.259,2.916 -34.727,8.103 l 12.832,23.043 c 6.65,-3.09 14.077,-4.825 21.895,-4.825 z m -51.969,51.963 c 0,-17.577 8.734,-33.121 22.097,-42.52 l -13.54,-22.634 c -15.684,10.474 -27.367,26.451 -32.296,45.183 5.833,4.697 9.57,11.897 9.57,19.972 0,8.08 -3.738,15.28 -9.57,19.978 4.929,18.731 16.612,34.708 32.296,45.188 l 13.54,-22.634 c -13.363,-9.406 -22.097,-24.944 -22.097,-42.533 z m 51.969,51.973 c -7.817,0 -15.244,-1.734 -21.895,-4.83 l -12.832,23.043 c 10.468,5.191 22.255,8.104 34.727,8.104 7.109,0 14.004,-0.946 20.558,-2.729 1.154,-7.409 5.521,-14.243 12.514,-18.273 6.987,-4.037 15.086,-4.404 22.066,-1.711 13.187,-13.088 21.743,-30.83 22.995,-50.557 l -26.372,-0.409 c -2.328,26.543 -24.608,47.362 -51.761,47.362 z"
         id="path964" />
    </g>
  </g>
</svg>
